<?xml version="1.0" encoding="UTF-8"?>
<svg version="1.1" xmlns="http://www.w3.org/2000/svg" width="500" height="500">
<path d="M0 0 C25.7944499 0 25.7944499 0 36.25 1.5625 C38.06661133 1.82595215 38.06661133 1.82595215 39.91992188 2.09472656 C86.64235096 9.33050098 133.16753265 30.89775211 167.515625 63.6328125 C169.60037017 65.61922063 171.72421785 67.4741954 173.9375 69.3125 C215.0903828 105.27875915 239.22792773 160.11946568 248 213 C249.01984653 201.76515571 249.13073587 190.62899598 249.09765625 179.35839844 C249.09573312 177.41871682 249.09427119 175.47903471 249.0932312 173.53935242 C249.09009101 169.39199633 249.08385481 165.24466106 249.07516479 161.09731293 C249.06156777 154.54268045 249.05573353 147.9880547 249.05102539 141.43341064 C249.0399667 127.53893124 249.02039289 113.64446836 249 99.75 C248.97796788 84.70609697 248.95742496 69.66220036 248.94658184 54.61828446 C248.94159182 48.09743677 248.93172275 41.57661994 248.91815186 35.0557847 C248.9107184 31.01425447 248.90738211 26.97272854 248.9051857 22.9311924 C248.90330653 21.0517762 248.89969151 19.17236085 248.89425278 17.29295158 C248.88708587 14.73700857 248.8859968 12.18113439 248.88647461 9.62518311 C248.88287965 8.87404165 248.87928469 8.1229002 248.87558079 7.34899688 C248.88590652 2.22818696 248.88590652 2.22818696 250 0 C308.3180961 -2.16215392 369.77209398 20.23567653 413.18188477 59.53833008 C414.63767315 60.89119585 416.0769811 62.26172922 417.515625 63.6328125 C419.60037017 65.61922063 421.72421785 67.4741954 423.9375 69.3125 C466.62999824 106.62433214 491.75932485 164.59500781 498.8125 219.8125 C498.9367334 220.76527832 499.0609668 221.71805664 499.18896484 222.69970703 C500.24766301 231.930867 500 240.52096572 500 250 C427.73 250.33 355.46 250.66 281 251 C288.92 252.32 296.84 253.64 305 255 C309.22897378 255.95777322 313.29808054 256.91210759 317.4375 258.125 C318.45569824 258.41866455 319.47389648 258.7123291 320.52294922 259.01489258 C356.00243899 269.59997882 389.34708414 287.64211628 416.61328125 312.80078125 C418.19464207 314.25791078 419.79627541 315.69336421 421.41796875 317.10546875 C465.30437662 355.41013953 491.52502667 412.76074769 498.8125 469.8125 C498.9367334 470.76527832 499.0609668 471.71805664 499.18896484 472.69970703 C500.24766301 481.930867 500 490.52096572 500 500 C335 500 170 500 0 500 C0 335 0 170 0 0 Z M22 250 C22 250.33 22 250.66 22 251 C22.74233887 251.08451416 23.48467773 251.16902832 24.24951172 251.25610352 C77.07485804 257.44866484 128.54231527 277.49208882 167.51171875 314.62890625 C169.61809341 316.63607959 171.76611653 318.51418872 174 320.375 C216.27897475 357.33641298 241.63992417 416.22740667 248 471 C248.33 471 248.66 471 249 471 C249.75967246 456.73424445 250.14300906 442.519566 250.11352539 428.23486328 C250.11321792 426.23973531 250.11335447 424.24460722 250.11389065 422.24947929 C250.11411329 416.98201933 250.10838417 411.7145828 250.10128021 406.4471283 C250.0955184 401.4757379 250.0953135 396.50435276 250.09460449 391.53295898 C250.08938986 377.06363631 250.07542864 362.59431784 250.0625 348.125 C250.0315625 299.553125 250.0315625 299.553125 250 250 C174.76 250 99.52 250 22 250 Z " fill="#4AC979" transform="translate(0,0)"/>
</svg>
